<svg xmlns="http://www.w3.org/2000/svg" width="1600" height="900" viewBox="0 0 1600 900">
  <rect width="1600" height="900" fill="#020617"/>
  <rect x="60" y="60" width="1480" height="780" rx="28" fill="#0f172a" stroke="#38bdf8" stroke-width="3"/>
  <rect x="100" y="100" width="1400" height="70" rx="18" fill="#111827"/>
  <rect x="130" y="122" width="210" height="24" rx="12" fill="#38bdf8"/>
  <rect x="1230" y="112" width="240" height="44" rx="22" fill="#0ea5e9"/>
  <rect x="100" y="210" width="460" height="220" rx="24" fill="#111827" stroke="#38bdf8" stroke-width="2"/>
  <rect x="600" y="210" width="420" height="220" rx="24" fill="#111827" stroke="#818cf8" stroke-width="2"/>
  <rect x="1050" y="210" width="330" height="220" rx="24" fill="#111827" stroke="#34d399" stroke-width="2"/>
  <rect x="100" y="470" width="1280" height="300" rx="24" fill="#111827"/>
  <rect x="140" y="520" width="200" height="16" rx="8" fill="#38bdf8"/>
  <rect x="140" y="550" width="320" height="14" rx="7" fill="#475569"/>
  <rect x="140" y="580" width="270" height="14" rx="7" fill="#475569"/>
  <rect x="620" y="520" width="200" height="16" rx="8" fill="#818cf8"/>
  <rect x="620" y="550" width="310" height="14" rx="7" fill="#475569"/>
  <rect x="1080" y="520" width="180" height="16" rx="8" fill="#34d399"/>
</svg>