<svg xmlns="http://www.w3.org/2000/svg" width="1600" height="900" viewBox="0 0 1600 900">
  <rect width="1600" height="900" fill="#111827"/>
  <rect x="70" y="70" width="1460" height="760" rx="30" fill="#1f2937" stroke="#a78bfa" stroke-width="3"/>
  <rect x="110" y="110" width="1380" height="72" rx="18" fill="#0f172a"/>
  <rect x="140" y="132" width="220" height="24" rx="12" fill="#a78bfa"/>
  <rect x="1260" y="122" width="200" height="44" rx="22" fill="#7c3aed"/>
  <rect x="110" y="230" width="680" height="250" rx="24" fill="#0f172a" stroke="#a78bfa" stroke-width="2"/>
  <rect x="840" y="230" width="650" height="250" rx="24" fill="#0f172a" stroke="#34d399" stroke-width="2"/>
  <rect x="110" y="530" width="1380" height="220" rx="24" fill="#0f172a"/>
  <text x="150" y="285" fill="#f8fafc" font-family="Segoe UI, Arial" font-size="36" font-weight="700">Create your ISA proposal</text>
  <text x="150" y="330" fill="#cbd5e1" font-family="Segoe UI, Arial" font-size="20">Tell your story, define your income share, and publish terms in minutes.</text>
  <rect x="150" y="370" width="220" height="48" rx="24" fill="#7c3aed"/>
  <rect x="150" y="590" width="250" height="16" rx="8" fill="#a78bfa"/>
  <rect x="150" y="620" width="360" height="14" rx="7" fill="#475569"/>
  <rect x="900" y="285" width="220" height="16" rx="8" fill="#34d399"/>
  <rect x="900" y="320" width="300" height="14" rx="7" fill="#475569"/>
</svg>